<?xml version="1.0" encoding="utf-8" standalone="no"?>
<!DOCTYPE svg PUBLIC "-//W3C//DTD SVG 1.1//EN"
  "http://www.w3.org/Graphics/SVG/1.1/DTD/svg11.dtd">
<!-- Created with matplotlib (https://matplotlib.org/) -->
<svg height="215.28pt" version="1.1" viewBox="0 0 682.66125 215.28" width="682.66125pt" xmlns="http://www.w3.org/2000/svg" xmlns:xlink="http://www.w3.org/1999/xlink">
 <defs>
  <style type="text/css">
*{stroke-linecap:butt;stroke-linejoin:round;}
  </style>
 </defs>
 <g id="figure_1">
  <g id="patch_1">
   <path d="M 0 215.28 
L 682.66125 215.28 
L 682.66125 0 
L 0 0 
z
" style="fill:none;"/>
  </g>
  <g id="axes_1">
   <g id="patch_2">
    <path d="M 216.160074 128.376 
C 216.160074 128.376 216.160074 128.376 216.160074 128.376 
L 151.360074 128.376 
L 216.160074 128.376 
z
" style="fill:#092436;opacity:0.5;stroke:#092436;stroke-linejoin:miter;"/>
   </g>
   <g id="patch_3">
    <path d="M 216.160074 128.376 
C 216.160074 112.294329 210.173497 96.774712 199.373707 84.85898 
C 188.573917 72.943248 173.715818 65.464309 157.711585 63.88803 
L 151.360074 128.376 
L 216.160074 128.376 
z
" style="fill:#4c2604;opacity:0.5;stroke:#4c2604;stroke-linejoin:miter;"/>
   </g>
   <g id="patch_4">
    <path d="M 157.711585 63.88803 
C 157.711585 63.88803 157.711585 63.88803 157.711585 63.88803 
L 151.360074 128.376 
L 157.711585 63.88803 
z
" style="fill:#0d300d;opacity:0.5;stroke:#0d300d;stroke-linejoin:miter;"/>
   </g>
   <g id="patch_5">
    <path d="M 157.711585 63.88803 
C 157.711585 63.88803 157.711585 63.88803 157.711585 63.88803 
L 151.360074 128.376 
L 157.711585 63.88803 
z
" style="fill:#400c0c;opacity:0.5;stroke:#400c0c;stroke-linejoin:miter;"/>
   </g>
   <g id="patch_6">
    <path d="M 152.910222 68.239732 
C 146.435085 67.601986 139.900669 67.943101 133.527131 69.251581 
C 127.153592 70.560062 121.013324 72.821047 115.313203 75.95836 
C 109.613081 79.095673 104.417851 83.073679 99.902548 87.758351 
C 95.387246 92.443024 91.603158 97.781153 88.677776 103.592888 
C 85.752395 109.404622 83.718948 115.623951 82.645946 122.041332 
C 81.572945 128.458713 81.472575 135.001257 82.34822 141.448532 
C 83.223865 147.895807 85.065579 154.174585 87.811309 160.07332 
C 90.55704 165.972055 94.175602 171.423748 98.545078 176.244722 
C 102.914554 181.065696 107.985315 185.201193 113.586518 188.51188 
C 119.18772 191.822566 125.255744 194.270839 131.586146 195.774211 
C 137.916547 197.277583 144.437425 197.818978 150.929077 197.380157 
C 157.420729 196.941335 163.809423 195.527281 169.879909 193.185635 
C 175.950396 190.84399 181.633727 187.601351 186.738418 183.56697 
C 191.84311 179.532588 196.311182 174.752286 199.992098 169.387123 
C 203.673013 164.02196 206.524963 158.132874 208.451859 151.91828 
C 210.378755 145.703685 211.358711 139.234169 211.358711 132.727702 
L 146.558711 132.727702 
L 152.910222 68.239732 
z
" style="fill:#2c1f39;opacity:0.5;stroke:#2c1f39;stroke-linejoin:miter;"/>
   </g>
   <g id="patch_7">
    <path d="M 217.456074 127.08 
C 217.456074 127.08 217.456074 127.08 217.456074 127.08 
L 152.656074 127.08 
L 217.456074 127.08 
z
" style="fill:#1f77b4;"/>
   </g>
   <g id="patch_8">
    <path d="M 217.456074 127.08 
C 217.456074 110.998329 211.469497 95.478712 200.669707 83.56298 
C 189.869917 71.647248 175.011818 64.168309 159.007585 62.59203 
L 152.656074 127.08 
L 217.456074 127.08 
z
" style="fill:#ff7f0e;"/>
   </g>
   <g id="patch_9">
    <path d="M 159.007585 62.59203 
C 159.007585 62.59203 159.007585 62.59203 159.007585 62.59203 
L 152.656074 127.08 
L 159.007585 62.59203 
z
" style="fill:#2ca02c;"/>
   </g>
   <g id="patch_10">
    <path d="M 159.007585 62.59203 
C 159.007585 62.59203 159.007585 62.59203 159.007585 62.59203 
L 152.656074 127.08 
L 159.007585 62.59203 
z
" style="fill:#d62728;"/>
   </g>
   <g id="patch_11">
    <path d="M 154.206222 66.943732 
C 147.731085 66.305986 141.196669 66.647101 134.823131 67.955581 
C 128.449592 69.264062 122.309324 71.525047 116.609203 74.66236 
C 110.909081 77.799673 105.713851 81.777679 101.198548 86.462351 
C 96.683246 91.147024 92.899158 96.485153 89.973776 102.296888 
C 87.048395 108.108622 85.014948 114.327951 83.941946 120.745332 
C 82.868945 127.162713 82.768575 133.705257 83.64422 140.152532 
C 84.519865 146.599807 86.361579 152.878585 89.107309 158.77732 
C 91.85304 164.676055 95.471602 170.127748 99.841078 174.948722 
C 104.210554 179.769696 109.281315 183.905193 114.882518 187.21588 
C 120.48372 190.526566 126.551744 192.974839 132.882146 194.478211 
C 139.212547 195.981583 145.733425 196.522978 152.225077 196.084157 
C 158.716729 195.645335 165.105423 194.231281 171.175909 191.889635 
C 177.246396 189.54799 182.929727 186.305351 188.034418 182.27097 
C 193.13911 178.236588 197.607182 173.456286 201.288098 168.091123 
C 204.969013 162.72596 207.820963 156.836874 209.747859 150.62228 
C 211.674755 144.407685 212.654711 137.938169 212.654711 131.431702 
L 147.854711 131.431702 
L 154.206222 66.943732 
z
" style="fill:#9467bd;"/>
   </g>
   <g id="matplotlib.axis_1"/>
   <g id="matplotlib.axis_2"/>
   <g id="text_1">
    <!-- Asian -->
    <defs>
     <path d="M 34.1875 63.1875 
L 20.796875 26.90625 
L 47.609375 26.90625 
z
M 28.609375 72.90625 
L 39.796875 72.90625 
L 67.578125 0 
L 57.328125 0 
L 50.6875 18.703125 
L 17.828125 18.703125 
L 11.1875 0 
L 0.78125 0 
z
" id="DejaVuSans-65"/>
     <path d="M 44.28125 53.078125 
L 44.28125 44.578125 
Q 40.484375 46.53125 36.375 47.5 
Q 32.28125 48.484375 27.875 48.484375 
Q 21.1875 48.484375 17.84375 46.4375 
Q 14.5 44.390625 14.5 40.28125 
Q 14.5 37.15625 16.890625 35.375 
Q 19.28125 33.59375 26.515625 31.984375 
L 29.59375 31.296875 
Q 39.15625 29.25 43.1875 25.515625 
Q 47.21875 21.78125 47.21875 15.09375 
Q 47.21875 7.46875 41.1875 3.015625 
Q 35.15625 -1.421875 24.609375 -1.421875 
Q 20.21875 -1.421875 15.453125 -0.5625 
Q 10.6875 0.296875 5.421875 2 
L 5.421875 11.28125 
Q 10.40625 8.6875 15.234375 7.390625 
Q 20.0625 6.109375 24.8125 6.109375 
Q 31.15625 6.109375 34.5625 8.28125 
Q 37.984375 10.453125 37.984375 14.40625 
Q 37.984375 18.0625 35.515625 20.015625 
Q 33.0625 21.96875 24.703125 23.78125 
L 21.578125 24.515625 
Q 13.234375 26.265625 9.515625 29.90625 
Q 5.8125 33.546875 5.8125 39.890625 
Q 5.8125 47.609375 11.28125 51.796875 
Q 16.75 56 26.8125 56 
Q 31.78125 56 36.171875 55.265625 
Q 40.578125 54.546875 44.28125 53.078125 
z
" id="DejaVuSans-115"/>
     <path d="M 9.421875 54.6875 
L 18.40625 54.6875 
L 18.40625 0 
L 9.421875 0 
z
M 9.421875 75.984375 
L 18.40625 75.984375 
L 18.40625 64.59375 
L 9.421875 64.59375 
z
" id="DejaVuSans-105"/>
     <path d="M 34.28125 27.484375 
Q 23.390625 27.484375 19.1875 25 
Q 14.984375 22.515625 14.984375 16.5 
Q 14.984375 11.71875 18.140625 8.90625 
Q 21.296875 6.109375 26.703125 6.109375 
Q 34.1875 6.109375 38.703125 11.40625 
Q 43.21875 16.703125 43.21875 25.484375 
L 43.21875 27.484375 
z
M 52.203125 31.203125 
L 52.203125 0 
L 43.21875 0 
L 43.21875 8.296875 
Q 40.140625 3.328125 35.546875 0.953125 
Q 30.953125 -1.421875 24.3125 -1.421875 
Q 15.921875 -1.421875 10.953125 3.296875 
Q 6 8.015625 6 15.921875 
Q 6 25.140625 12.171875 29.828125 
Q 18.359375 34.515625 30.609375 34.515625 
L 43.21875 34.515625 
L 43.21875 35.40625 
Q 43.21875 41.609375 39.140625 45 
Q 35.0625 48.390625 27.6875 48.390625 
Q 23 48.390625 18.546875 47.265625 
Q 14.109375 46.140625 10.015625 43.890625 
L 10.015625 52.203125 
Q 14.9375 54.109375 19.578125 55.046875 
Q 24.21875 56 28.609375 56 
Q 40.484375 56 46.34375 49.84375 
Q 52.203125 43.703125 52.203125 31.203125 
z
" id="DejaVuSans-97"/>
     <path d="M 54.890625 33.015625 
L 54.890625 0 
L 45.90625 0 
L 45.90625 32.71875 
Q 45.90625 40.484375 42.875 44.328125 
Q 39.84375 48.1875 33.796875 48.1875 
Q 26.515625 48.1875 22.3125 43.546875 
Q 18.109375 38.921875 18.109375 30.90625 
L 18.109375 0 
L 9.078125 0 
L 9.078125 54.6875 
L 18.109375 54.6875 
L 18.109375 46.1875 
Q 21.34375 51.125 25.703125 53.5625 
Q 30.078125 56 35.796875 56 
Q 45.21875 56 50.046875 50.171875 
Q 54.890625 44.34375 54.890625 33.015625 
z
" id="DejaVuSans-110"/>
    </defs>
    <g transform="translate(223.936074 129.839375)scale(0.1 -0.1)">
     <use xlink:href="#DejaVuSans-65"/>
     <use x="68.408203" xlink:href="#DejaVuSans-115"/>
     <use x="120.507812" xlink:href="#DejaVuSans-105"/>
     <use x="148.291016" xlink:href="#DejaVuSans-97"/>
     <use x="209.570312" xlink:href="#DejaVuSans-110"/>
    </g>
   </g>
   <g id="text_2">
    <!-- 0.0% -->
    <defs>
     <path d="M 31.78125 66.40625 
Q 24.171875 66.40625 20.328125 58.90625 
Q 16.5 51.421875 16.5 36.375 
Q 16.5 21.390625 20.328125 13.890625 
Q 24.171875 6.390625 31.78125 6.390625 
Q 39.453125 6.390625 43.28125 13.890625 
Q 47.125 21.390625 47.125 36.375 
Q 47.125 51.421875 43.28125 58.90625 
Q 39.453125 66.40625 31.78125 66.40625 
z
M 31.78125 74.21875 
Q 44.046875 74.21875 50.515625 64.515625 
Q 56.984375 54.828125 56.984375 36.375 
Q 56.984375 17.96875 50.515625 8.265625 
Q 44.046875 -1.421875 31.78125 -1.421875 
Q 19.53125 -1.421875 13.0625 8.265625 
Q 6.59375 17.96875 6.59375 36.375 
Q 6.59375 54.828125 13.0625 64.515625 
Q 19.53125 74.21875 31.78125 74.21875 
z
" id="DejaVuSans-48"/>
     <path d="M 10.6875 12.40625 
L 21 12.40625 
L 21 0 
L 10.6875 0 
z
" id="DejaVuSans-46"/>
     <path d="M 72.703125 32.078125 
Q 68.453125 32.078125 66.03125 28.46875 
Q 63.625 24.859375 63.625 18.40625 
Q 63.625 12.0625 66.03125 8.421875 
Q 68.453125 4.78125 72.703125 4.78125 
Q 76.859375 4.78125 79.265625 8.421875 
Q 81.6875 12.0625 81.6875 18.40625 
Q 81.6875 24.8125 79.265625 28.4375 
Q 76.859375 32.078125 72.703125 32.078125 
z
M 72.703125 38.28125 
Q 80.421875 38.28125 84.953125 32.90625 
Q 89.5 27.546875 89.5 18.40625 
Q 89.5 9.28125 84.9375 3.921875 
Q 80.375 -1.421875 72.703125 -1.421875 
Q 64.890625 -1.421875 60.34375 3.921875 
Q 55.8125 9.28125 55.8125 18.40625 
Q 55.8125 27.59375 60.375 32.9375 
Q 64.9375 38.28125 72.703125 38.28125 
z
M 22.3125 68.015625 
Q 18.109375 68.015625 15.6875 64.375 
Q 13.28125 60.75 13.28125 54.390625 
Q 13.28125 47.953125 15.671875 44.328125 
Q 18.0625 40.71875 22.3125 40.71875 
Q 26.5625 40.71875 28.96875 44.328125 
Q 31.390625 47.953125 31.390625 54.390625 
Q 31.390625 60.6875 28.953125 64.34375 
Q 26.515625 68.015625 22.3125 68.015625 
z
M 66.40625 74.21875 
L 74.21875 74.21875 
L 28.609375 -1.421875 
L 20.796875 -1.421875 
z
M 22.3125 74.21875 
Q 30.03125 74.21875 34.609375 68.875 
Q 39.203125 63.53125 39.203125 54.390625 
Q 39.203125 45.171875 34.640625 39.84375 
Q 30.078125 34.515625 22.3125 34.515625 
Q 14.546875 34.515625 10.03125 39.859375 
Q 5.515625 45.21875 5.515625 54.390625 
Q 5.515625 63.484375 10.046875 68.84375 
Q 14.59375 74.21875 22.3125 74.21875 
z
" id="DejaVuSans-37"/>
    </defs>
    <g transform="translate(178.833731 129.839375)scale(0.1 -0.1)">
     <use xlink:href="#DejaVuSans-48"/>
     <use x="63.623047" xlink:href="#DejaVuSans-46"/>
     <use x="95.410156" xlink:href="#DejaVuSans-48"/>
     <use x="159.033203" xlink:href="#DejaVuSans-37"/>
    </g>
   </g>
   <g id="text_3">
    <!-- Black -->
    <defs>
     <path d="M 19.671875 34.8125 
L 19.671875 8.109375 
L 35.5 8.109375 
Q 43.453125 8.109375 47.28125 11.40625 
Q 51.125 14.703125 51.125 21.484375 
Q 51.125 28.328125 47.28125 31.5625 
Q 43.453125 34.8125 35.5 34.8125 
z
M 19.671875 64.796875 
L 19.671875 42.828125 
L 34.28125 42.828125 
Q 41.5 42.828125 45.03125 45.53125 
Q 48.578125 48.25 48.578125 53.8125 
Q 48.578125 59.328125 45.03125 62.0625 
Q 41.5 64.796875 34.28125 64.796875 
z
M 9.8125 72.90625 
L 35.015625 72.90625 
Q 46.296875 72.90625 52.390625 68.21875 
Q 58.5 63.53125 58.5 54.890625 
Q 58.5 48.1875 55.375 44.234375 
Q 52.25 40.28125 46.1875 39.3125 
Q 53.46875 37.75 57.5 32.78125 
Q 61.53125 27.828125 61.53125 20.40625 
Q 61.53125 10.640625 54.890625 5.3125 
Q 48.25 0 35.984375 0 
L 9.8125 0 
z
" id="DejaVuSans-66"/>
     <path d="M 9.421875 75.984375 
L 18.40625 75.984375 
L 18.40625 0 
L 9.421875 0 
z
" id="DejaVuSans-108"/>
     <path d="M 48.78125 52.59375 
L 48.78125 44.1875 
Q 44.96875 46.296875 41.140625 47.34375 
Q 37.3125 48.390625 33.40625 48.390625 
Q 24.65625 48.390625 19.8125 42.84375 
Q 14.984375 37.3125 14.984375 27.296875 
Q 14.984375 17.28125 19.8125 11.734375 
Q 24.65625 6.203125 33.40625 6.203125 
Q 37.3125 6.203125 41.140625 7.25 
Q 44.96875 8.296875 48.78125 10.40625 
L 48.78125 2.09375 
Q 45.015625 0.34375 40.984375 -0.53125 
Q 36.96875 -1.421875 32.421875 -1.421875 
Q 20.0625 -1.421875 12.78125 6.34375 
Q 5.515625 14.109375 5.515625 27.296875 
Q 5.515625 40.671875 12.859375 48.328125 
Q 20.21875 56 33.015625 56 
Q 37.15625 56 41.109375 55.140625 
Q 45.0625 54.296875 48.78125 52.59375 
z
" id="DejaVuSans-99"/>
     <path d="M 9.078125 75.984375 
L 18.109375 75.984375 
L 18.109375 31.109375 
L 44.921875 54.6875 
L 56.390625 54.6875 
L 27.390625 29.109375 
L 57.625 0 
L 45.90625 0 
L 18.109375 26.703125 
L 18.109375 0 
L 9.078125 0 
z
" id="DejaVuSans-107"/>
    </defs>
    <g transform="translate(205.47107 81.970653)scale(0.1 -0.1)">
     <use xlink:href="#DejaVuSans-66"/>
     <use x="68.603516" xlink:href="#DejaVuSans-108"/>
     <use x="96.386719" xlink:href="#DejaVuSans-97"/>
     <use x="157.666016" xlink:href="#DejaVuSans-99"/>
     <use x="212.646484" xlink:href="#DejaVuSans-107"/>
    </g>
   </g>
   <g id="text_4">
    <!-- 23.4% -->
    <defs>
     <path d="M 19.1875 8.296875 
L 53.609375 8.296875 
L 53.609375 0 
L 7.328125 0 
L 7.328125 8.296875 
Q 12.9375 14.109375 22.625 23.890625 
Q 32.328125 33.6875 34.8125 36.53125 
Q 39.546875 41.84375 41.421875 45.53125 
Q 43.3125 49.21875 43.3125 52.78125 
Q 43.3125 58.59375 39.234375 62.25 
Q 35.15625 65.921875 28.609375 65.921875 
Q 23.96875 65.921875 18.8125 64.3125 
Q 13.671875 62.703125 7.8125 59.421875 
L 7.8125 69.390625 
Q 13.765625 71.78125 18.9375 73 
Q 24.125 74.21875 28.421875 74.21875 
Q 39.75 74.21875 46.484375 68.546875 
Q 53.21875 62.890625 53.21875 53.421875 
Q 53.21875 48.921875 51.53125 44.890625 
Q 49.859375 40.875 45.40625 35.40625 
Q 44.1875 33.984375 37.640625 27.21875 
Q 31.109375 20.453125 19.1875 8.296875 
z
" id="DejaVuSans-50"/>
     <path d="M 40.578125 39.3125 
Q 47.65625 37.796875 51.625 33 
Q 55.609375 28.21875 55.609375 21.1875 
Q 55.609375 10.40625 48.1875 4.484375 
Q 40.765625 -1.421875 27.09375 -1.421875 
Q 22.515625 -1.421875 17.65625 -0.515625 
Q 12.796875 0.390625 7.625 2.203125 
L 7.625 11.71875 
Q 11.71875 9.328125 16.59375 8.109375 
Q 21.484375 6.890625 26.8125 6.890625 
Q 36.078125 6.890625 40.9375 10.546875 
Q 45.796875 14.203125 45.796875 21.1875 
Q 45.796875 27.640625 41.28125 31.265625 
Q 36.765625 34.90625 28.71875 34.90625 
L 20.21875 34.90625 
L 20.21875 43.015625 
L 29.109375 43.015625 
Q 36.375 43.015625 40.234375 45.921875 
Q 44.09375 48.828125 44.09375 54.296875 
Q 44.09375 59.90625 40.109375 62.90625 
Q 36.140625 65.921875 28.71875 65.921875 
Q 24.65625 65.921875 20.015625 65.03125 
Q 15.375 64.15625 9.8125 62.3125 
L 9.8125 71.09375 
Q 15.4375 72.65625 20.34375 73.4375 
Q 25.25 74.21875 29.59375 74.21875 
Q 40.828125 74.21875 47.359375 69.109375 
Q 53.90625 64.015625 53.90625 55.328125 
Q 53.90625 49.265625 50.4375 45.09375 
Q 46.96875 40.921875 40.578125 39.3125 
z
" id="DejaVuSans-51"/>
     <path d="M 37.796875 64.3125 
L 12.890625 25.390625 
L 37.796875 25.390625 
z
M 35.203125 72.90625 
L 47.609375 72.90625 
L 47.609375 25.390625 
L 58.015625 25.390625 
L 58.015625 17.1875 
L 47.609375 17.1875 
L 47.609375 0 
L 37.796875 0 
L 37.796875 17.1875 
L 4.890625 17.1875 
L 4.890625 26.703125 
z
" id="DejaVuSans-52"/>
    </defs>
    <g transform="translate(165.58066 103.729163)scale(0.1 -0.1)">
     <use xlink:href="#DejaVuSans-50"/>
     <use x="63.623047" xlink:href="#DejaVuSans-51"/>
     <use x="127.246094" xlink:href="#DejaVuSans-46"/>
     <use x="159.033203" xlink:href="#DejaVuSans-52"/>
     <use x="222.65625" xlink:href="#DejaVuSans-37"/>
    </g>
   </g>
   <g id="text_5">
    <!-- Hispanic -->
    <defs>
     <path d="M 9.8125 72.90625 
L 19.671875 72.90625 
L 19.671875 43.015625 
L 55.515625 43.015625 
L 55.515625 72.90625 
L 65.375 72.90625 
L 65.375 0 
L 55.515625 0 
L 55.515625 34.71875 
L 19.671875 34.71875 
L 19.671875 0 
L 9.8125 0 
z
" id="DejaVuSans-72"/>
     <path d="M 18.109375 8.203125 
L 18.109375 -20.796875 
L 9.078125 -20.796875 
L 9.078125 54.6875 
L 18.109375 54.6875 
L 18.109375 46.390625 
Q 20.953125 51.265625 25.265625 53.625 
Q 29.59375 56 35.59375 56 
Q 45.5625 56 51.78125 48.09375 
Q 58.015625 40.1875 58.015625 27.296875 
Q 58.015625 14.40625 51.78125 6.484375 
Q 45.5625 -1.421875 35.59375 -1.421875 
Q 29.59375 -1.421875 25.265625 0.953125 
Q 20.953125 3.328125 18.109375 8.203125 
z
M 48.6875 27.296875 
Q 48.6875 37.203125 44.609375 42.84375 
Q 40.53125 48.484375 33.40625 48.484375 
Q 26.265625 48.484375 22.1875 42.84375 
Q 18.109375 37.203125 18.109375 27.296875 
Q 18.109375 17.390625 22.1875 11.75 
Q 26.265625 6.109375 33.40625 6.109375 
Q 40.53125 6.109375 44.609375 11.75 
Q 48.6875 17.390625 48.6875 27.296875 
z
" id="DejaVuSans-112"/>
    </defs>
    <g transform="translate(159.642736 58.902608)scale(0.1 -0.1)">
     <use xlink:href="#DejaVuSans-72"/>
     <use x="75.195312" xlink:href="#DejaVuSans-105"/>
     <use x="102.978516" xlink:href="#DejaVuSans-115"/>
     <use x="155.078125" xlink:href="#DejaVuSans-112"/>
     <use x="218.554688" xlink:href="#DejaVuSans-97"/>
     <use x="279.833984" xlink:href="#DejaVuSans-110"/>
     <use x="343.212891" xlink:href="#DejaVuSans-105"/>
     <use x="370.996094" xlink:href="#DejaVuSans-99"/>
    </g>
   </g>
   <g id="text_6">
    <!-- 0.0% -->
    <g transform="translate(143.764637 91.146593)scale(0.1 -0.1)">
     <use xlink:href="#DejaVuSans-48"/>
     <use x="63.623047" xlink:href="#DejaVuSans-46"/>
     <use x="95.410156" xlink:href="#DejaVuSans-48"/>
     <use x="159.033203" xlink:href="#DejaVuSans-37"/>
    </g>
   </g>
   <g id="text_7">
    <!-- Other Races -->
    <defs>
     <path d="M 39.40625 66.21875 
Q 28.65625 66.21875 22.328125 58.203125 
Q 16.015625 50.203125 16.015625 36.375 
Q 16.015625 22.609375 22.328125 14.59375 
Q 28.65625 6.59375 39.40625 6.59375 
Q 50.140625 6.59375 56.421875 14.59375 
Q 62.703125 22.609375 62.703125 36.375 
Q 62.703125 50.203125 56.421875 58.203125 
Q 50.140625 66.21875 39.40625 66.21875 
z
M 39.40625 74.21875 
Q 54.734375 74.21875 63.90625 63.9375 
Q 73.09375 53.65625 73.09375 36.375 
Q 73.09375 19.140625 63.90625 8.859375 
Q 54.734375 -1.421875 39.40625 -1.421875 
Q 24.03125 -1.421875 14.8125 8.828125 
Q 5.609375 19.09375 5.609375 36.375 
Q 5.609375 53.65625 14.8125 63.9375 
Q 24.03125 74.21875 39.40625 74.21875 
z
" id="DejaVuSans-79"/>
     <path d="M 18.3125 70.21875 
L 18.3125 54.6875 
L 36.8125 54.6875 
L 36.8125 47.703125 
L 18.3125 47.703125 
L 18.3125 18.015625 
Q 18.3125 11.328125 20.140625 9.421875 
Q 21.96875 7.515625 27.59375 7.515625 
L 36.8125 7.515625 
L 36.8125 0 
L 27.59375 0 
Q 17.1875 0 13.234375 3.875 
Q 9.28125 7.765625 9.28125 18.015625 
L 9.28125 47.703125 
L 2.6875 47.703125 
L 2.6875 54.6875 
L 9.28125 54.6875 
L 9.28125 70.21875 
z
" id="DejaVuSans-116"/>
     <path d="M 54.890625 33.015625 
L 54.890625 0 
L 45.90625 0 
L 45.90625 32.71875 
Q 45.90625 40.484375 42.875 44.328125 
Q 39.84375 48.1875 33.796875 48.1875 
Q 26.515625 48.1875 22.3125 43.546875 
Q 18.109375 38.921875 18.109375 30.90625 
L 18.109375 0 
L 9.078125 0 
L 9.078125 75.984375 
L 18.109375 75.984375 
L 18.109375 46.1875 
Q 21.34375 51.125 25.703125 53.5625 
Q 30.078125 56 35.796875 56 
Q 45.21875 56 50.046875 50.171875 
Q 54.890625 44.34375 54.890625 33.015625 
z
" id="DejaVuSans-104"/>
     <path d="M 56.203125 29.59375 
L 56.203125 25.203125 
L 14.890625 25.203125 
Q 15.484375 15.921875 20.484375 11.0625 
Q 25.484375 6.203125 34.421875 6.203125 
Q 39.59375 6.203125 44.453125 7.46875 
Q 49.3125 8.734375 54.109375 11.28125 
L 54.109375 2.78125 
Q 49.265625 0.734375 44.1875 -0.34375 
Q 39.109375 -1.421875 33.890625 -1.421875 
Q 20.796875 -1.421875 13.15625 6.1875 
Q 5.515625 13.8125 5.515625 26.8125 
Q 5.515625 40.234375 12.765625 48.109375 
Q 20.015625 56 32.328125 56 
Q 43.359375 56 49.78125 48.890625 
Q 56.203125 41.796875 56.203125 29.59375 
z
M 47.21875 32.234375 
Q 47.125 39.59375 43.09375 43.984375 
Q 39.0625 48.390625 32.421875 48.390625 
Q 24.90625 48.390625 20.390625 44.140625 
Q 15.875 39.890625 15.1875 32.171875 
z
" id="DejaVuSans-101"/>
     <path d="M 41.109375 46.296875 
Q 39.59375 47.171875 37.8125 47.578125 
Q 36.03125 48 33.890625 48 
Q 26.265625 48 22.1875 43.046875 
Q 18.109375 38.09375 18.109375 28.8125 
L 18.109375 0 
L 9.078125 0 
L 9.078125 54.6875 
L 18.109375 54.6875 
L 18.109375 46.1875 
Q 20.953125 51.171875 25.484375 53.578125 
Q 30.03125 56 36.53125 56 
Q 37.453125 56 38.578125 55.875 
Q 39.703125 55.765625 41.0625 55.515625 
z
" id="DejaVuSans-114"/>
     <path id="DejaVuSans-32"/>
     <path d="M 44.390625 34.1875 
Q 47.5625 33.109375 50.5625 29.59375 
Q 53.5625 26.078125 56.59375 19.921875 
L 66.609375 0 
L 56 0 
L 46.6875 18.703125 
Q 43.0625 26.03125 39.671875 28.421875 
Q 36.28125 30.8125 30.421875 30.8125 
L 19.671875 30.8125 
L 19.671875 0 
L 9.8125 0 
L 9.8125 72.90625 
L 32.078125 72.90625 
Q 44.578125 72.90625 50.734375 67.671875 
Q 56.890625 62.453125 56.890625 51.90625 
Q 56.890625 45.015625 53.6875 40.46875 
Q 50.484375 35.9375 44.390625 34.1875 
z
M 19.671875 64.796875 
L 19.671875 38.921875 
L 32.078125 38.921875 
Q 39.203125 38.921875 42.84375 42.21875 
Q 46.484375 45.515625 46.484375 51.90625 
Q 46.484375 58.296875 42.84375 61.546875 
Q 39.203125 64.796875 32.078125 64.796875 
z
" id="DejaVuSans-82"/>
    </defs>
    <g transform="translate(159.642736 58.902608)scale(0.1 -0.1)">
     <use xlink:href="#DejaVuSans-79"/>
     <use x="78.710938" xlink:href="#DejaVuSans-116"/>
     <use x="117.919922" xlink:href="#DejaVuSans-104"/>
     <use x="181.298828" xlink:href="#DejaVuSans-101"/>
     <use x="242.822266" xlink:href="#DejaVuSans-114"/>
     <use x="283.935547" xlink:href="#DejaVuSans-32"/>
     <use x="315.722656" xlink:href="#DejaVuSans-82"/>
     <use x="382.955078" xlink:href="#DejaVuSans-97"/>
     <use x="444.234375" xlink:href="#DejaVuSans-99"/>
     <use x="499.214844" xlink:href="#DejaVuSans-101"/>
     <use x="560.738281" xlink:href="#DejaVuSans-115"/>
    </g>
   </g>
   <g id="text_8">
    <!-- 0.0% -->
    <g transform="translate(143.764637 91.146593)scale(0.1 -0.1)">
     <use xlink:href="#DejaVuSans-48"/>
     <use x="63.623047" xlink:href="#DejaVuSans-46"/>
     <use x="95.410156" xlink:href="#DejaVuSans-48"/>
     <use x="159.033203" xlink:href="#DejaVuSans-37"/>
    </g>
   </g>
   <g id="text_9">
    <!-- White -->
    <defs>
     <path d="M 3.328125 72.90625 
L 13.28125 72.90625 
L 28.609375 11.28125 
L 43.890625 72.90625 
L 54.984375 72.90625 
L 70.3125 11.28125 
L 85.59375 72.90625 
L 95.609375 72.90625 
L 77.296875 0 
L 64.890625 0 
L 49.515625 63.28125 
L 33.984375 0 
L 21.578125 0 
z
" id="DejaVuSans-87"/>
    </defs>
    <g transform="translate(65.963152 182.059799)scale(0.1 -0.1)">
     <use xlink:href="#DejaVuSans-87"/>
     <use x="98.876953" xlink:href="#DejaVuSans-104"/>
     <use x="162.255859" xlink:href="#DejaVuSans-105"/>
     <use x="190.039062" xlink:href="#DejaVuSans-116"/>
     <use x="229.248047" xlink:href="#DejaVuSans-101"/>
    </g>
   </g>
   <g id="text_10">
    <!-- 76.6% -->
    <defs>
     <path d="M 8.203125 72.90625 
L 55.078125 72.90625 
L 55.078125 68.703125 
L 28.609375 0 
L 18.3125 0 
L 43.21875 64.59375 
L 8.203125 64.59375 
z
" id="DejaVuSans-55"/>
     <path d="M 33.015625 40.375 
Q 26.375 40.375 22.484375 35.828125 
Q 18.609375 31.296875 18.609375 23.390625 
Q 18.609375 15.53125 22.484375 10.953125 
Q 26.375 6.390625 33.015625 6.390625 
Q 39.65625 6.390625 43.53125 10.953125 
Q 47.40625 15.53125 47.40625 23.390625 
Q 47.40625 31.296875 43.53125 35.828125 
Q 39.65625 40.375 33.015625 40.375 
z
M 52.59375 71.296875 
L 52.59375 62.3125 
Q 48.875 64.0625 45.09375 64.984375 
Q 41.3125 65.921875 37.59375 65.921875 
Q 27.828125 65.921875 22.671875 59.328125 
Q 17.53125 52.734375 16.796875 39.40625 
Q 19.671875 43.65625 24.015625 45.921875 
Q 28.375 48.1875 33.59375 48.1875 
Q 44.578125 48.1875 50.953125 41.515625 
Q 57.328125 34.859375 57.328125 23.390625 
Q 57.328125 12.15625 50.6875 5.359375 
Q 44.046875 -1.421875 33.015625 -1.421875 
Q 20.359375 -1.421875 13.671875 8.265625 
Q 6.984375 17.96875 6.984375 36.375 
Q 6.984375 53.65625 15.1875 63.9375 
Q 23.390625 74.21875 37.203125 74.21875 
Q 40.921875 74.21875 44.703125 73.484375 
Q 48.484375 72.75 52.59375 71.296875 
z
" id="DejaVuSans-54"/>
    </defs>
    <g transform="translate(103.162937 160.301289)scale(0.1 -0.1)">
     <use xlink:href="#DejaVuSans-55"/>
     <use x="63.623047" xlink:href="#DejaVuSans-54"/>
     <use x="127.246094" xlink:href="#DejaVuSans-46"/>
     <use x="159.033203" xlink:href="#DejaVuSans-54"/>
     <use x="222.65625" xlink:href="#DejaVuSans-37"/>
    </g>
   </g>
   <g id="text_11">
    <!-- Democratic Recipiants -->
    <defs>
     <path d="M 19.671875 64.796875 
L 19.671875 8.109375 
L 31.59375 8.109375 
Q 46.6875 8.109375 53.6875 14.9375 
Q 60.6875 21.78125 60.6875 36.53125 
Q 60.6875 51.171875 53.6875 57.984375 
Q 46.6875 64.796875 31.59375 64.796875 
z
M 9.8125 72.90625 
L 30.078125 72.90625 
Q 51.265625 72.90625 61.171875 64.09375 
Q 71.09375 55.28125 71.09375 36.53125 
Q 71.09375 17.671875 61.125 8.828125 
Q 51.171875 0 30.078125 0 
L 9.8125 0 
z
" id="DejaVuSans-68"/>
     <path d="M 52 44.1875 
Q 55.375 50.25 60.0625 53.125 
Q 64.75 56 71.09375 56 
Q 79.640625 56 84.28125 50.015625 
Q 88.921875 44.046875 88.921875 33.015625 
L 88.921875 0 
L 79.890625 0 
L 79.890625 32.71875 
Q 79.890625 40.578125 77.09375 44.375 
Q 74.3125 48.1875 68.609375 48.1875 
Q 61.625 48.1875 57.5625 43.546875 
Q 53.515625 38.921875 53.515625 30.90625 
L 53.515625 0 
L 44.484375 0 
L 44.484375 32.71875 
Q 44.484375 40.625 41.703125 44.40625 
Q 38.921875 48.1875 33.109375 48.1875 
Q 26.21875 48.1875 22.15625 43.53125 
Q 18.109375 38.875 18.109375 30.90625 
L 18.109375 0 
L 9.078125 0 
L 9.078125 54.6875 
L 18.109375 54.6875 
L 18.109375 46.1875 
Q 21.1875 51.21875 25.484375 53.609375 
Q 29.78125 56 35.6875 56 
Q 41.65625 56 45.828125 52.96875 
Q 50 49.953125 52 44.1875 
z
" id="DejaVuSans-109"/>
     <path d="M 30.609375 48.390625 
Q 23.390625 48.390625 19.1875 42.75 
Q 14.984375 37.109375 14.984375 27.296875 
Q 14.984375 17.484375 19.15625 11.84375 
Q 23.34375 6.203125 30.609375 6.203125 
Q 37.796875 6.203125 41.984375 11.859375 
Q 46.1875 17.53125 46.1875 27.296875 
Q 46.1875 37.015625 41.984375 42.703125 
Q 37.796875 48.390625 30.609375 48.390625 
z
M 30.609375 56 
Q 42.328125 56 49.015625 48.375 
Q 55.71875 40.765625 55.71875 27.296875 
Q 55.71875 13.875 49.015625 6.21875 
Q 42.328125 -1.421875 30.609375 -1.421875 
Q 18.84375 -1.421875 12.171875 6.21875 
Q 5.515625 13.875 5.515625 27.296875 
Q 5.515625 40.765625 12.171875 48.375 
Q 18.84375 56 30.609375 56 
z
" id="DejaVuSans-111"/>
    </defs>
    <g transform="translate(85.171074 40.08)scale(0.12 -0.12)">
     <use xlink:href="#DejaVuSans-68"/>
     <use x="77.001953" xlink:href="#DejaVuSans-101"/>
     <use x="138.525391" xlink:href="#DejaVuSans-109"/>
     <use x="235.9375" xlink:href="#DejaVuSans-111"/>
     <use x="297.119141" xlink:href="#DejaVuSans-99"/>
     <use x="352.099609" xlink:href="#DejaVuSans-114"/>
     <use x="393.212891" xlink:href="#DejaVuSans-97"/>
     <use x="454.492188" xlink:href="#DejaVuSans-116"/>
     <use x="493.701172" xlink:href="#DejaVuSans-105"/>
     <use x="521.484375" xlink:href="#DejaVuSans-99"/>
     <use x="576.464844" xlink:href="#DejaVuSans-32"/>
     <use x="608.251953" xlink:href="#DejaVuSans-82"/>
     <use x="673.234375" xlink:href="#DejaVuSans-101"/>
     <use x="734.757812" xlink:href="#DejaVuSans-99"/>
     <use x="789.738281" xlink:href="#DejaVuSans-105"/>
     <use x="817.521484" xlink:href="#DejaVuSans-112"/>
     <use x="880.998047" xlink:href="#DejaVuSans-105"/>
     <use x="908.78125" xlink:href="#DejaVuSans-97"/>
     <use x="970.060547" xlink:href="#DejaVuSans-110"/>
     <use x="1033.439453" xlink:href="#DejaVuSans-116"/>
     <use x="1072.648438" xlink:href="#DejaVuSans-115"/>
    </g>
   </g>
  </g>
  <g id="axes_2">
   <g id="patch_12">
    <path d="M 593.509176 128.376 
C 593.509176 128.376 593.509176 128.376 593.509176 128.376 
L 528.709176 128.376 
L 593.509176 128.376 
z
" style="fill:#092436;opacity:0.5;stroke:#092436;stroke-linejoin:miter;"/>
   </g>
   <g id="patch_13">
    <path d="M 593.509176 128.376 
C 593.509176 126.8336 593.454106 125.291691 593.344073 123.753221 
C 593.234039 122.21475 593.069112 120.680699 592.849605 119.153998 
L 528.709176 128.376 
L 593.509176 128.376 
z
" style="fill:#4c2604;opacity:0.5;stroke:#4c2604;stroke-linejoin:miter;"/>
   </g>
   <g id="patch_14">
    <path d="M 592.849605 119.153998 
C 592.630099 117.627297 592.356153 116.10892 592.028293 114.601769 
C 591.700432 113.094617 591.318865 111.599652 590.88432 110.11973 
L 528.709176 128.376 
L 592.849605 119.153998 
z
" style="fill:#0d300d;opacity:0.5;stroke:#0d300d;stroke-linejoin:miter;"/>
   </g>
   <g id="patch_15">
    <path d="M 590.88432 110.11973 
C 590.88432 110.11973 590.88432 110.11973 590.88432 110.11973 
L 528.709176 128.376 
L 590.88432 110.11973 
z
" style="fill:#400c0c;opacity:0.5;stroke:#400c0c;stroke-linejoin:miter;"/>
   </g>
   <g id="patch_16">
    <path d="M 584.470277 111.04193 
C 582.182505 103.250493 578.450418 95.958069 573.468807 89.545275 
C 568.487196 83.13248 562.344264 77.712858 555.360631 73.569277 
C 548.376998 69.425696 540.676316 66.631522 532.660509 65.332592 
C 524.644702 64.033662 516.455696 64.252974 508.520903 65.979083 
C 500.58611 67.705191 493.046023 70.907533 486.294183 75.418968 
C 479.542343 79.930403 473.698298 85.671052 469.067068 92.341291 
C 464.435837 99.011531 461.099422 106.493258 459.23196 114.395978 
C 457.364498 122.298697 456.999054 130.482484 458.154703 138.520199 
C 459.310352 146.557914 461.966631 154.307242 465.9849 161.363722 
C 470.003169 168.420201 475.312282 174.658889 481.635138 179.754169 
C 487.957994 184.849449 495.182642 188.711104 502.932003 191.137582 
C 510.681364 193.56406 518.818229 194.512397 526.917907 193.933097 
C 535.017586 193.353797 542.936668 191.257117 550.261828 187.752489 
C 557.586988 184.247862 564.188529 179.397339 569.721894 173.454086 
C 575.25526 167.510833 579.622476 160.580081 582.595605 153.023567 
C 585.568733 145.467054 587.095132 137.418575 587.095133 129.298206 
L 522.295133 129.2982 
L 584.470277 111.04193 
z
" style="fill:#2c1f39;opacity:0.5;stroke:#2c1f39;stroke-linejoin:miter;"/>
   </g>
   <g id="patch_17">
    <path d="M 594.805176 127.08 
C 594.805176 127.08 594.805176 127.08 594.805176 127.08 
L 530.005176 127.08 
L 594.805176 127.08 
z
" style="fill:#1f77b4;"/>
   </g>
   <g id="patch_18">
    <path d="M 594.805176 127.08 
C 594.805176 125.5376 594.750106 123.995691 594.640073 122.457221 
C 594.530039 120.91875 594.365112 119.384699 594.145605 117.857998 
L 530.005176 127.08 
L 594.805176 127.08 
z
" style="fill:#ff7f0e;"/>
   </g>
   <g id="patch_19">
    <path d="M 594.145605 117.857998 
C 593.926099 116.331297 593.652153 114.81292 593.324293 113.305769 
C 592.996432 111.798617 592.614865 110.303652 592.18032 108.82373 
L 530.005176 127.08 
L 594.145605 117.857998 
z
" style="fill:#2ca02c;"/>
   </g>
   <g id="patch_20">
    <path d="M 592.18032 108.82373 
C 592.18032 108.82373 592.18032 108.82373 592.18032 108.82373 
L 530.005176 127.08 
L 592.18032 108.82373 
z
" style="fill:#d62728;"/>
   </g>
   <g id="patch_21">
    <path d="M 585.766277 109.74593 
C 583.478505 101.954493 579.746418 94.662069 574.764807 88.249275 
C 569.783196 81.83648 563.640264 76.416858 556.656631 72.273277 
C 549.672998 68.129696 541.972316 65.335522 533.956509 64.036592 
C 525.940702 62.737662 517.751696 62.956974 509.816903 64.683083 
C 501.88211 66.409191 494.342023 69.611533 487.590183 74.122968 
C 480.838343 78.634403 474.994298 84.375052 470.363068 91.045291 
C 465.731837 97.715531 462.395422 105.197258 460.52796 113.099978 
C 458.660498 121.002697 458.295054 129.186484 459.450703 137.224199 
C 460.606352 145.261914 463.262631 153.011242 467.2809 160.067722 
C 471.299169 167.124201 476.608282 173.362889 482.931138 178.458169 
C 489.253994 183.553449 496.478642 187.415104 504.228003 189.841582 
C 511.977364 192.26806 520.114229 193.216397 528.213907 192.637097 
C 536.313586 192.057797 544.232668 189.961117 551.557828 186.456489 
C 558.882988 182.951862 565.484529 178.101339 571.017894 172.158086 
C 576.55126 166.214833 580.918476 159.284081 583.891605 151.727567 
C 586.864733 144.171054 588.391132 136.122575 588.391133 128.002206 
L 523.591133 128.0022 
L 585.766277 109.74593 
z
" style="fill:#9467bd;"/>
   </g>
   <g id="matplotlib.axis_3"/>
   <g id="matplotlib.axis_4"/>
   <g id="text_12">
    <!-- Asian -->
    <g transform="translate(601.285176 129.839375)scale(0.1 -0.1)">
     <use xlink:href="#DejaVuSans-65"/>
     <use x="68.408203" xlink:href="#DejaVuSans-115"/>
     <use x="120.507812" xlink:href="#DejaVuSans-105"/>
     <use x="148.291016" xlink:href="#DejaVuSans-97"/>
     <use x="209.570312" xlink:href="#DejaVuSans-110"/>
    </g>
   </g>
   <g id="text_13">
    <!-- 0.0% -->
    <g transform="translate(556.182832 129.839375)scale(0.1 -0.1)">
     <use xlink:href="#DejaVuSans-48"/>
     <use x="63.623047" xlink:href="#DejaVuSans-46"/>
     <use x="95.410156" xlink:href="#DejaVuSans-48"/>
     <use x="159.033203" xlink:href="#DejaVuSans-37"/>
    </g>
   </g>
   <g id="text_14">
    <!-- Black -->
    <g transform="translate(601.103562 124.754318)scale(0.1 -0.1)">
     <use xlink:href="#DejaVuSans-66"/>
     <use x="68.603516" xlink:href="#DejaVuSans-108"/>
     <use x="96.386719" xlink:href="#DejaVuSans-97"/>
     <use x="157.666016" xlink:href="#DejaVuSans-99"/>
     <use x="212.646484" xlink:href="#DejaVuSans-107"/>
    </g>
   </g>
   <g id="text_15">
    <!-- 2.3% -->
    <g transform="translate(556.08377 127.065707)scale(0.1 -0.1)">
     <use xlink:href="#DejaVuSans-50"/>
     <use x="63.623047" xlink:href="#DejaVuSans-46"/>
     <use x="95.410156" xlink:href="#DejaVuSans-51"/>
     <use x="159.033203" xlink:href="#DejaVuSans-37"/>
    </g>
   </g>
   <g id="text_16">
    <!-- Hispanic -->
    <g transform="translate(599.656204 114.687721)scale(0.1 -0.1)">
     <use xlink:href="#DejaVuSans-72"/>
     <use x="75.195312" xlink:href="#DejaVuSans-105"/>
     <use x="102.978516" xlink:href="#DejaVuSans-115"/>
     <use x="155.078125" xlink:href="#DejaVuSans-112"/>
     <use x="218.554688" xlink:href="#DejaVuSans-97"/>
     <use x="279.833984" xlink:href="#DejaVuSans-110"/>
     <use x="343.212891" xlink:href="#DejaVuSans-105"/>
     <use x="370.996094" xlink:href="#DejaVuSans-99"/>
    </g>
   </g>
   <g id="text_17">
    <!-- 2.3% -->
    <g transform="translate(555.294302 121.574836)scale(0.1 -0.1)">
     <use xlink:href="#DejaVuSans-50"/>
     <use x="63.623047" xlink:href="#DejaVuSans-46"/>
     <use x="95.410156" xlink:href="#DejaVuSans-51"/>
     <use x="159.033203" xlink:href="#DejaVuSans-37"/>
    </g>
   </g>
   <g id="text_18">
    <!-- Other Races -->
    <g transform="translate(598.397835 109.757478)scale(0.1 -0.1)">
     <use xlink:href="#DejaVuSans-79"/>
     <use x="78.710938" xlink:href="#DejaVuSans-116"/>
     <use x="117.919922" xlink:href="#DejaVuSans-104"/>
     <use x="181.298828" xlink:href="#DejaVuSans-101"/>
     <use x="242.822266" xlink:href="#DejaVuSans-114"/>
     <use x="283.935547" xlink:href="#DejaVuSans-32"/>
     <use x="315.722656" xlink:href="#DejaVuSans-82"/>
     <use x="382.955078" xlink:href="#DejaVuSans-97"/>
     <use x="444.234375" xlink:href="#DejaVuSans-99"/>
     <use x="499.214844" xlink:href="#DejaVuSans-101"/>
     <use x="560.738281" xlink:href="#DejaVuSans-115"/>
    </g>
   </g>
   <g id="text_19">
    <!-- 0.0% -->
    <g transform="translate(554.607919 118.885613)scale(0.1 -0.1)">
     <use xlink:href="#DejaVuSans-48"/>
     <use x="63.623047" xlink:href="#DejaVuSans-46"/>
     <use x="95.410156" xlink:href="#DejaVuSans-48"/>
     <use x="159.033203" xlink:href="#DejaVuSans-37"/>
    </g>
   </g>
   <g id="text_20">
    <!-- White -->
    <g transform="translate(423.960097 140.905774)scale(0.1 -0.1)">
     <use xlink:href="#DejaVuSans-87"/>
     <use x="98.876953" xlink:href="#DejaVuSans-104"/>
     <use x="162.255859" xlink:href="#DejaVuSans-105"/>
     <use x="190.039062" xlink:href="#DejaVuSans-116"/>
     <use x="229.248047" xlink:href="#DejaVuSans-101"/>
    </g>
   </g>
   <g id="text_21">
    <!-- 95.5% -->
    <defs>
     <path d="M 10.984375 1.515625 
L 10.984375 10.5 
Q 14.703125 8.734375 18.5 7.8125 
Q 22.3125 6.890625 25.984375 6.890625 
Q 35.75 6.890625 40.890625 13.453125 
Q 46.046875 20.015625 46.78125 33.40625 
Q 43.953125 29.203125 39.59375 26.953125 
Q 35.25 24.703125 29.984375 24.703125 
Q 19.046875 24.703125 12.671875 31.3125 
Q 6.296875 37.9375 6.296875 49.421875 
Q 6.296875 60.640625 12.9375 67.421875 
Q 19.578125 74.21875 30.609375 74.21875 
Q 43.265625 74.21875 49.921875 64.515625 
Q 56.59375 54.828125 56.59375 36.375 
Q 56.59375 19.140625 48.40625 8.859375 
Q 40.234375 -1.421875 26.421875 -1.421875 
Q 22.703125 -1.421875 18.890625 -0.6875 
Q 15.09375 0.046875 10.984375 1.515625 
z
M 30.609375 32.421875 
Q 37.25 32.421875 41.125 36.953125 
Q 45.015625 41.5 45.015625 49.421875 
Q 45.015625 57.28125 41.125 61.84375 
Q 37.25 66.40625 30.609375 66.40625 
Q 23.96875 66.40625 20.09375 61.84375 
Q 16.21875 57.28125 16.21875 49.421875 
Q 16.21875 41.5 20.09375 36.953125 
Q 23.96875 32.421875 30.609375 32.421875 
z
" id="DejaVuSans-57"/>
     <path d="M 10.796875 72.90625 
L 49.515625 72.90625 
L 49.515625 64.59375 
L 19.828125 64.59375 
L 19.828125 46.734375 
Q 21.96875 47.46875 24.109375 47.828125 
Q 26.265625 48.1875 28.421875 48.1875 
Q 40.625 48.1875 47.75 41.5 
Q 54.890625 34.8125 54.890625 23.390625 
Q 54.890625 11.625 47.5625 5.09375 
Q 40.234375 -1.421875 26.90625 -1.421875 
Q 22.3125 -1.421875 17.546875 -0.640625 
Q 12.796875 0.140625 7.71875 1.703125 
L 7.71875 11.625 
Q 12.109375 9.234375 16.796875 8.0625 
Q 21.484375 6.890625 26.703125 6.890625 
Q 35.15625 6.890625 40.078125 11.328125 
Q 45.015625 15.765625 45.015625 23.390625 
Q 45.015625 31 40.078125 35.4375 
Q 35.15625 39.890625 26.703125 39.890625 
Q 22.75 39.890625 18.8125 39.015625 
Q 14.890625 38.140625 10.796875 36.28125 
z
" id="DejaVuSans-53"/>
    </defs>
    <g transform="translate(469.223281 136.294774)scale(0.1 -0.1)">
     <use xlink:href="#DejaVuSans-57"/>
     <use x="63.623047" xlink:href="#DejaVuSans-53"/>
     <use x="127.246094" xlink:href="#DejaVuSans-46"/>
     <use x="159.033203" xlink:href="#DejaVuSans-53"/>
     <use x="222.65625" xlink:href="#DejaVuSans-37"/>
    </g>
   </g>
   <g id="text_22">
    <!-- Republican Recipiants -->
    <defs>
     <path d="M 8.5 21.578125 
L 8.5 54.6875 
L 17.484375 54.6875 
L 17.484375 21.921875 
Q 17.484375 14.15625 20.5 10.265625 
Q 23.53125 6.390625 29.59375 6.390625 
Q 36.859375 6.390625 41.078125 11.03125 
Q 45.3125 15.671875 45.3125 23.6875 
L 45.3125 54.6875 
L 54.296875 54.6875 
L 54.296875 0 
L 45.3125 0 
L 45.3125 8.40625 
Q 42.046875 3.421875 37.71875 1 
Q 33.40625 -1.421875 27.6875 -1.421875 
Q 18.265625 -1.421875 13.375 4.4375 
Q 8.5 10.296875 8.5 21.578125 
z
M 31.109375 56 
z
" id="DejaVuSans-117"/>
     <path d="M 48.6875 27.296875 
Q 48.6875 37.203125 44.609375 42.84375 
Q 40.53125 48.484375 33.40625 48.484375 
Q 26.265625 48.484375 22.1875 42.84375 
Q 18.109375 37.203125 18.109375 27.296875 
Q 18.109375 17.390625 22.1875 11.75 
Q 26.265625 6.109375 33.40625 6.109375 
Q 40.53125 6.109375 44.609375 11.75 
Q 48.6875 17.390625 48.6875 27.296875 
z
M 18.109375 46.390625 
Q 20.953125 51.265625 25.265625 53.625 
Q 29.59375 56 35.59375 56 
Q 45.5625 56 51.78125 48.09375 
Q 58.015625 40.1875 58.015625 27.296875 
Q 58.015625 14.40625 51.78125 6.484375 
Q 45.5625 -1.421875 35.59375 -1.421875 
Q 29.59375 -1.421875 25.265625 0.953125 
Q 20.953125 3.328125 18.109375 8.203125 
L 18.109375 0 
L 9.078125 0 
L 9.078125 75.984375 
L 18.109375 75.984375 
z
" id="DejaVuSans-98"/>
    </defs>
    <g transform="translate(463.984551 40.08)scale(0.12 -0.12)">
     <use xlink:href="#DejaVuSans-82"/>
     <use x="64.982422" xlink:href="#DejaVuSans-101"/>
     <use x="126.505859" xlink:href="#DejaVuSans-112"/>
     <use x="189.982422" xlink:href="#DejaVuSans-117"/>
     <use x="253.361328" xlink:href="#DejaVuSans-98"/>
     <use x="316.837891" xlink:href="#DejaVuSans-108"/>
     <use x="344.621094" xlink:href="#DejaVuSans-105"/>
     <use x="372.404297" xlink:href="#DejaVuSans-99"/>
     <use x="427.384766" xlink:href="#DejaVuSans-97"/>
     <use x="488.664062" xlink:href="#DejaVuSans-110"/>
     <use x="552.042969" xlink:href="#DejaVuSans-32"/>
     <use x="583.830078" xlink:href="#DejaVuSans-82"/>
     <use x="648.8125" xlink:href="#DejaVuSans-101"/>
     <use x="710.335938" xlink:href="#DejaVuSans-99"/>
     <use x="765.316406" xlink:href="#DejaVuSans-105"/>
     <use x="793.099609" xlink:href="#DejaVuSans-112"/>
     <use x="856.576172" xlink:href="#DejaVuSans-105"/>
     <use x="884.359375" xlink:href="#DejaVuSans-97"/>
     <use x="945.638672" xlink:href="#DejaVuSans-110"/>
     <use x="1009.017578" xlink:href="#DejaVuSans-116"/>
     <use x="1048.226562" xlink:href="#DejaVuSans-115"/>
    </g>
   </g>
  </g>
  <g id="text_23">
   <!-- Percent of PAC Disbursements to Members of the 116th Congress by Race -->
   <defs>
    <path d="M 19.671875 64.796875 
L 19.671875 37.40625 
L 32.078125 37.40625 
Q 38.96875 37.40625 42.71875 40.96875 
Q 46.484375 44.53125 46.484375 51.125 
Q 46.484375 57.671875 42.71875 61.234375 
Q 38.96875 64.796875 32.078125 64.796875 
z
M 9.8125 72.90625 
L 32.078125 72.90625 
Q 44.34375 72.90625 50.609375 67.359375 
Q 56.890625 61.8125 56.890625 51.125 
Q 56.890625 40.328125 50.609375 34.8125 
Q 44.34375 29.296875 32.078125 29.296875 
L 19.671875 29.296875 
L 19.671875 0 
L 9.8125 0 
z
" id="DejaVuSans-80"/>
    <path d="M 37.109375 75.984375 
L 37.109375 68.5 
L 28.515625 68.5 
Q 23.6875 68.5 21.796875 66.546875 
Q 19.921875 64.59375 19.921875 59.515625 
L 19.921875 54.6875 
L 34.71875 54.6875 
L 34.71875 47.703125 
L 19.921875 47.703125 
L 19.921875 0 
L 10.890625 0 
L 10.890625 47.703125 
L 2.296875 47.703125 
L 2.296875 54.6875 
L 10.890625 54.6875 
L 10.890625 58.5 
Q 10.890625 67.625 15.140625 71.796875 
Q 19.390625 75.984375 28.609375 75.984375 
z
" id="DejaVuSans-102"/>
    <path d="M 64.40625 67.28125 
L 64.40625 56.890625 
Q 59.421875 61.53125 53.78125 63.8125 
Q 48.140625 66.109375 41.796875 66.109375 
Q 29.296875 66.109375 22.65625 58.46875 
Q 16.015625 50.828125 16.015625 36.375 
Q 16.015625 21.96875 22.65625 14.328125 
Q 29.296875 6.6875 41.796875 6.6875 
Q 48.140625 6.6875 53.78125 8.984375 
Q 59.421875 11.28125 64.40625 15.921875 
L 64.40625 5.609375 
Q 59.234375 2.09375 53.4375 0.328125 
Q 47.65625 -1.421875 41.21875 -1.421875 
Q 24.65625 -1.421875 15.125 8.703125 
Q 5.609375 18.84375 5.609375 36.375 
Q 5.609375 53.953125 15.125 64.078125 
Q 24.65625 74.21875 41.21875 74.21875 
Q 47.75 74.21875 53.53125 72.484375 
Q 59.328125 70.75 64.40625 67.28125 
z
" id="DejaVuSans-67"/>
    <path d="M 9.8125 72.90625 
L 24.515625 72.90625 
L 43.109375 23.296875 
L 61.8125 72.90625 
L 76.515625 72.90625 
L 76.515625 0 
L 66.890625 0 
L 66.890625 64.015625 
L 48.09375 14.015625 
L 38.1875 14.015625 
L 19.390625 64.015625 
L 19.390625 0 
L 9.8125 0 
z
" id="DejaVuSans-77"/>
    <path d="M 12.40625 8.296875 
L 28.515625 8.296875 
L 28.515625 63.921875 
L 10.984375 60.40625 
L 10.984375 69.390625 
L 28.421875 72.90625 
L 38.28125 72.90625 
L 38.28125 8.296875 
L 54.390625 8.296875 
L 54.390625 0 
L 12.40625 0 
z
" id="DejaVuSans-49"/>
    <path d="M 45.40625 27.984375 
Q 45.40625 37.75 41.375 43.109375 
Q 37.359375 48.484375 30.078125 48.484375 
Q 22.859375 48.484375 18.828125 43.109375 
Q 14.796875 37.75 14.796875 27.984375 
Q 14.796875 18.265625 18.828125 12.890625 
Q 22.859375 7.515625 30.078125 7.515625 
Q 37.359375 7.515625 41.375 12.890625 
Q 45.40625 18.265625 45.40625 27.984375 
z
M 54.390625 6.78125 
Q 54.390625 -7.171875 48.1875 -13.984375 
Q 42 -20.796875 29.203125 -20.796875 
Q 24.46875 -20.796875 20.265625 -20.09375 
Q 16.0625 -19.390625 12.109375 -17.921875 
L 12.109375 -9.1875 
Q 16.0625 -11.328125 19.921875 -12.34375 
Q 23.78125 -13.375 27.78125 -13.375 
Q 36.625 -13.375 41.015625 -8.765625 
Q 45.40625 -4.15625 45.40625 5.171875 
L 45.40625 9.625 
Q 42.625 4.78125 38.28125 2.390625 
Q 33.9375 0 27.875 0 
Q 17.828125 0 11.671875 7.65625 
Q 5.515625 15.328125 5.515625 27.984375 
Q 5.515625 40.671875 11.671875 48.328125 
Q 17.828125 56 27.875 56 
Q 33.9375 56 38.28125 53.609375 
Q 42.625 51.21875 45.40625 46.390625 
L 45.40625 54.6875 
L 54.390625 54.6875 
z
" id="DejaVuSans-103"/>
    <path d="M 32.171875 -5.078125 
Q 28.375 -14.84375 24.75 -17.8125 
Q 21.140625 -20.796875 15.09375 -20.796875 
L 7.90625 -20.796875 
L 7.90625 -13.28125 
L 13.1875 -13.28125 
Q 16.890625 -13.28125 18.9375 -11.515625 
Q 21 -9.765625 23.484375 -3.21875 
L 25.09375 0.875 
L 2.984375 54.6875 
L 12.5 54.6875 
L 29.59375 11.921875 
L 46.6875 54.6875 
L 56.203125 54.6875 
z
" id="DejaVuSans-121"/>
   </defs>
   <g transform="translate(7.2 20.877187)scale(0.18 -0.18)">
    <use xlink:href="#DejaVuSans-80"/>
    <use x="56.677734" xlink:href="#DejaVuSans-101"/>
    <use x="118.201172" xlink:href="#DejaVuSans-114"/>
    <use x="157.064453" xlink:href="#DejaVuSans-99"/>
    <use x="212.044922" xlink:href="#DejaVuSans-101"/>
    <use x="273.568359" xlink:href="#DejaVuSans-110"/>
    <use x="336.947266" xlink:href="#DejaVuSans-116"/>
    <use x="376.15625" xlink:href="#DejaVuSans-32"/>
    <use x="407.943359" xlink:href="#DejaVuSans-111"/>
    <use x="469.125" xlink:href="#DejaVuSans-102"/>
    <use x="504.330078" xlink:href="#DejaVuSans-32"/>
    <use x="536.117188" xlink:href="#DejaVuSans-80"/>
    <use x="590.044922" xlink:href="#DejaVuSans-65"/>
    <use x="656.703125" xlink:href="#DejaVuSans-67"/>
    <use x="726.527344" xlink:href="#DejaVuSans-32"/>
    <use x="758.314453" xlink:href="#DejaVuSans-68"/>
    <use x="835.316406" xlink:href="#DejaVuSans-105"/>
    <use x="863.099609" xlink:href="#DejaVuSans-115"/>
    <use x="915.199219" xlink:href="#DejaVuSans-98"/>
    <use x="978.675781" xlink:href="#DejaVuSans-117"/>
    <use x="1042.054688" xlink:href="#DejaVuSans-114"/>
    <use x="1083.167969" xlink:href="#DejaVuSans-115"/>
    <use x="1135.267578" xlink:href="#DejaVuSans-101"/>
    <use x="1196.791016" xlink:href="#DejaVuSans-109"/>
    <use x="1294.203125" xlink:href="#DejaVuSans-101"/>
    <use x="1355.726562" xlink:href="#DejaVuSans-110"/>
    <use x="1419.105469" xlink:href="#DejaVuSans-116"/>
    <use x="1458.314453" xlink:href="#DejaVuSans-115"/>
    <use x="1510.414062" xlink:href="#DejaVuSans-32"/>
    <use x="1542.201172" xlink:href="#DejaVuSans-116"/>
    <use x="1581.410156" xlink:href="#DejaVuSans-111"/>
    <use x="1642.591797" xlink:href="#DejaVuSans-32"/>
    <use x="1674.378906" xlink:href="#DejaVuSans-77"/>
    <use x="1760.658203" xlink:href="#DejaVuSans-101"/>
    <use x="1822.181641" xlink:href="#DejaVuSans-109"/>
    <use x="1919.59375" xlink:href="#DejaVuSans-98"/>
    <use x="1983.070312" xlink:href="#DejaVuSans-101"/>
    <use x="2044.59375" xlink:href="#DejaVuSans-114"/>
    <use x="2085.707031" xlink:href="#DejaVuSans-115"/>
    <use x="2137.806641" xlink:href="#DejaVuSans-32"/>
    <use x="2169.59375" xlink:href="#DejaVuSans-111"/>
    <use x="2230.775391" xlink:href="#DejaVuSans-102"/>
    <use x="2265.980469" xlink:href="#DejaVuSans-32"/>
    <use x="2297.767578" xlink:href="#DejaVuSans-116"/>
    <use x="2336.976562" xlink:href="#DejaVuSans-104"/>
    <use x="2400.355469" xlink:href="#DejaVuSans-101"/>
    <use x="2461.878906" xlink:href="#DejaVuSans-32"/>
    <use x="2493.666016" xlink:href="#DejaVuSans-49"/>
    <use x="2557.289062" xlink:href="#DejaVuSans-49"/>
    <use x="2620.912109" xlink:href="#DejaVuSans-54"/>
    <use x="2684.535156" xlink:href="#DejaVuSans-116"/>
    <use x="2723.744141" xlink:href="#DejaVuSans-104"/>
    <use x="2787.123047" xlink:href="#DejaVuSans-32"/>
    <use x="2818.910156" xlink:href="#DejaVuSans-67"/>
    <use x="2888.734375" xlink:href="#DejaVuSans-111"/>
    <use x="2949.916016" xlink:href="#DejaVuSans-110"/>
    <use x="3013.294922" xlink:href="#DejaVuSans-103"/>
    <use x="3076.771484" xlink:href="#DejaVuSans-114"/>
    <use x="3115.634766" xlink:href="#DejaVuSans-101"/>
    <use x="3177.158203" xlink:href="#DejaVuSans-115"/>
    <use x="3229.257812" xlink:href="#DejaVuSans-115"/>
    <use x="3281.357422" xlink:href="#DejaVuSans-32"/>
    <use x="3313.144531" xlink:href="#DejaVuSans-98"/>
    <use x="3376.621094" xlink:href="#DejaVuSans-121"/>
    <use x="3435.800781" xlink:href="#DejaVuSans-32"/>
    <use x="3467.587891" xlink:href="#DejaVuSans-82"/>
    <use x="3534.820312" xlink:href="#DejaVuSans-97"/>
    <use x="3596.099609" xlink:href="#DejaVuSans-99"/>
    <use x="3651.080078" xlink:href="#DejaVuSans-101"/>
   </g>
  </g>
 </g>
</svg>
